<?xml version="1.0" encoding="UTF-8"?>
<svg id="Icon" xmlns="http://www.w3.org/2000/svg" version="1.1"
    width="256px" height="256px"
    viewBox="0 0 256 256"
    >
    <defs>
        <style>
            .cls-1 {
                fill: #cecece;
                stroke: #232323;
                stroke-miterlimit: 1.3;
                stroke-width: 37.3px;
            }

            .cls-2 {
                fill: #232323;
                stroke-width: 0px;
            }
        </style>
    </defs>
    <rect class="cls-1" x="18.7" y="18.7" width="218.7" height="218.7" rx="30.7" ry="30.7" />
    <g id="Arrows" class="cls-2">
        <path d="M60,149.1c-1.1,9.9,4.9,19.8,13.8,23.9,1.8.8,3.6,1.5,5.6,1.5,24.7.4,49.3.1,74,.3,0-3.6,0-7.1,0-10.7,0-2.8,1.9-5,4.5-5.6,1.9-.5,3.6.2,5.2,1.4,2.9,2.2,5.8,4.4,8.7,6.6,3.5,2.7,6.9,5.4,10.5,8,1.7,1.4,3.4,2.8,5.1,4.2,2.2,1.8,2,5.8,0,7.6-1.4,1.2-2.8,2.3-4.3,3.4-4.6,3.4-9.3,6.8-14,10.1-4,2.6-9,8.4-13.7,3.9-1.1-1.1-1.7-2.4-1.7-3.9,0-4.4,0-8.7,0-13.2-24.3,0-48.6,0-72.9,0-2.5,0-5.1-.5-7.5-1.3-4.5-1.5-8.9-3.6-12.5-6.8-11.4-9.2-16.3-26.4-9.5-39.7,2.2-4.5,9.4-3.8,10.6,1.1.3,1.2.4,2.6-.2,3.7-.9,1.7-1.3,3.6-1.6,5.5h0Z" />
        <path d="M93.6,64c26.8,0,53.6,0,80.3,0,.7,0,1.3.3,1.8.7,3.6,2.8,7.1,5.6,10.7,8.4,2.5,1.8,3.3,5.9,1,8.1-1.5,1.4-3.2,2.7-4.8,3.9-4.4,3.3-8.9,6.5-13.3,9.8-4.8,3.4-12.6,11.4-16.2,2.3-.5-7.1,0-14.3-.2-21.5-32.3,0-64.7,0-97,0-6.2,0-8.6-8.3-3-11.2.9-.5,1.9-.6,2.9-.6,12.6,0,25.2,0,37.8,0h0Z" />
        <path d="M136.4,130.4h-37.4c0,4.6,0,9.2,0,13.8,0,2.7-1.7,5-4.5,5.6-1.7.4-3.2,0-4.6-1.1-8.3-6.4-16.6-12.7-24.8-19.1-3.9-2.9-2.9-7.1,1.1-9.3,7.8-5.6,15.5-11.3,23.4-16.8,2.4-1.6,5.6-1.3,7.5.7,1.1,1.1,1.7,2.5,1.7,4.1,0,3.5,0,7,0,10.5,26.8-.5,53.9,1.1,80.6-.6,12.1-3.1,20-16.9,16.1-28.8-1.3-2.8.8-5.9,3.7-6.6,4.5-1.2,7.5,3.2,8,7.1,4.4,18-9.2,37.3-27.3,40.2-14.5,1.2-29,.1-43.6.5h0Z" />
    </g>
</svg>
